<?xml version="1.0" encoding="UTF-8"?>
<svg version="1.1" xmlns="http://www.w3.org/2000/svg" width="512" height="512">
<path d="M0 0 C7.86070435 6.35948713 13.75712391 15.89274328 15.16015625 26.0390625 C15.19840248 28.37208236 15.20589909 30.70617758 15.16015625 33.0390625 C16.19140625 33.1215625 17.22265625 33.2040625 18.28515625 33.2890625 C24.63245552 34.51757204 28.79653192 38.02009834 32.77734375 42.94921875 C39.62613305 53.29979015 40.157379 66.40059759 40.25390625 78.42578125 C40.27163876 79.76977875 40.28962672 81.11377289 40.30786133 82.45776367 C40.34309011 85.14828678 40.32958485 87.82481472 40.29174805 90.5168457 C40.18408617 97.25644522 40.18408617 97.25644522 42.67089844 103.31542969 C44.42507125 105.01435296 46.25994026 106.50913807 48.16015625 108.0390625 C49.90234375 110.8046875 49.90234375 110.8046875 51.03515625 113.2890625 C51.42445313 114.11921875 51.81375 114.949375 52.21484375 115.8046875 C55.4266971 123.39634088 55.40473986 134.00792401 53.09765625 141.9765625 C49.51688274 150.74443781 42.58453061 157.788635 34.19140625 162.03515625 C29.30393177 164.06190658 24.41245475 164.68647765 19.16015625 165.0390625 C19.06734375 166.864375 19.06734375 166.864375 18.97265625 168.7265625 C16.73138617 188.55557698 3.54806919 203.76077444 -10.76953125 216.41796875 C-12.83984375 218.0390625 -12.83984375 218.0390625 -15.57421875 219.4765625 C-18.02969403 220.80045009 -18.02969403 220.80045009 -18.36328125 223.16015625 C-18.28980469 224.30677734 -18.28980469 224.30677734 -18.21484375 225.4765625 C-18.18132812 226.23839844 -18.1478125 227.00023437 -18.11328125 227.78515625 C-17.85181192 229.94041061 -17.42059553 231.94930813 -16.83984375 234.0390625 C-15.10734375 233.8225 -15.10734375 233.8225 -13.33984375 233.6015625 C-8.4420081 233.6015625 -6.1950606 235.71740108 -2.796875 239.03515625 C-2.15105469 239.69644531 -1.50523437 240.35773438 -0.83984375 241.0390625 C-0.18371094 241.64878906 0.47242188 242.25851563 1.1484375 242.88671875 C5.97078585 247.42951068 5.97078585 247.42951068 6.94020081 250.54989624 C7.92039677 253.2134298 7.92039677 253.2134298 10.39024353 254.06411743 C11.2926326 254.25388153 12.19502167 254.44364563 13.12475586 254.63916016 C14.11530975 254.86935852 15.10586365 255.09955688 16.12643433 255.33673096 C17.12756256 255.56850037 18.1286908 255.80026978 19.16015625 256.0390625 C20.9071176 256.56347437 22.64788119 257.10907172 24.38110352 257.67724609 C25.2489296 257.96119232 26.11675568 258.24513855 27.01087952 258.53768921 C27.9070549 258.83462677 28.80323029 259.13156433 29.7265625 259.4375 C30.68610336 259.75433746 31.64564423 260.07117493 32.63426208 260.39761353 C34.64562428 261.06327038 36.65644838 261.7305552 38.66674805 262.39941406 C41.71613458 263.41189712 44.76908151 264.41309896 47.82226562 265.4140625 C49.7905938 266.06701776 51.75870043 266.72064134 53.7265625 267.375 C54.62476212 267.6678891 55.52296173 267.9607782 56.44837952 268.26254272 C70.02685098 272.8205139 80.6879764 278.94603221 87.66015625 291.9765625 C92.52513359 301.80551382 92.59662091 313.094084 93.16552734 323.84594727 C93.2851561 326.10155973 93.41516772 328.35639179 93.546875 330.61132812 C93.97204265 338.09310635 94.2641708 345.54258527 94.16015625 353.0390625 C94.80452637 353.05380615 95.44889648 353.0685498 96.11279297 353.08374023 C105.48080981 353.41127239 113.6492119 357.36946833 120.53515625 363.6640625 C128.32931276 372.10908802 131.29570399 381.69876748 131.3371582 392.92773438 C131.3437294 393.70737549 131.3503006 394.4870166 131.35707092 395.2902832 C131.37672916 397.86279413 131.38845325 400.43524671 131.3984375 403.0078125 C131.40251303 403.8916713 131.40658855 404.77553009 131.41078758 405.68617249 C131.43162206 410.36955529 131.44593199 415.05290907 131.45532227 419.73632812 C131.46634789 424.54309562 131.50071061 429.34939526 131.54049397 434.15599823 C131.56680859 437.87781557 131.57502745 441.59952423 131.57860374 445.32142639 C131.58343579 447.091427 131.59495159 448.86142388 131.61364174 450.6313324 C131.74525545 463.92702096 131.19586739 476.53070627 122.0703125 487.109375 C113.65539236 495.61033727 104.56568221 499.46071493 92.60223782 499.57869822 C91.40223011 499.57045745 90.20222241 499.56221668 88.96585083 499.5537262 C87.66720372 499.56067172 86.36855661 499.56761725 85.03055656 499.57477325 C81.45048378 499.59330688 77.87082728 499.58712806 74.29073787 499.57662022 C70.42012792 499.56960157 66.54960122 499.58564634 62.67901611 499.59861755 C55.1056823 499.62021891 47.53249897 499.62014052 39.95914449 499.61199201 C33.80100423 499.60568238 27.64290773 499.60683786 21.48476791 499.61326408 C20.16814996 499.61461657 20.16814996 499.61461657 18.82493367 499.61599637 C17.04157177 499.61784765 15.25820989 499.61971021 13.47484802 499.62158393 C-3.23496672 499.63814918 -19.94469693 499.62945432 -36.65450658 499.61259835 C-51.92624012 499.59790519 -67.19777684 499.61252664 -82.46948503 499.64136852 C-98.16801328 499.67079462 -113.86645081 499.68172526 -129.56500542 499.67218632 C-131.34227823 499.67116381 -133.11955105 499.6701692 -134.89682388 499.6692028 C-136.20834685 499.66848822 -136.20834685 499.66848822 -137.54636522 499.6677592 C-143.6924227 499.66559917 -149.83839387 499.67537731 -155.98443222 499.68997383 C-163.48135923 499.70753093 -170.97803549 499.70733166 -178.4749528 499.68462218 C-182.2963153 499.67351002 -186.11723657 499.67024795 -189.93857956 499.68892288 C-194.08993672 499.70894869 -198.24022725 499.68987563 -202.39157104 499.66725159 C-204.18489044 499.68500518 -204.18489044 499.68500518 -206.01443851 499.70311743 C-217.34170908 499.57809334 -226.72457795 496.13386709 -234.9375 488.203125 C-245.09547588 476.64764526 -245.29620103 463.02675621 -245.23828125 448.4765625 C-245.24030616 446.67634972 -245.24322106 444.87613774 -245.24697876 443.07592773 C-245.2513825 439.31714 -245.24503428 435.55856727 -245.23095703 431.79980469 C-245.21386633 427.0052529 -245.22371803 422.2112051 -245.24167442 417.41667175 C-245.25256521 413.70353464 -245.24904174 409.99051511 -245.24129105 406.27737427 C-245.23930365 404.5105076 -245.24169641 402.74362991 -245.24872971 400.97677612 C-245.2938477 386.46025014 -244.17222649 374.87358507 -233.765625 363.83984375 C-227.42678984 357.85500985 -221.32279852 354.18963776 -212.5546875 353.44140625 C-211.66773193 353.36269287 -210.78077637 353.28397949 -209.86694336 353.20288086 C-209.19800049 353.1488208 -208.52905762 353.09476074 -207.83984375 353.0390625 C-207.80225952 351.94573608 -207.80225952 351.94573608 -207.76391602 350.83032227 C-207.51616039 343.6970951 -207.25228082 336.56464886 -206.97216797 329.43261719 C-206.89268903 327.3943198 -206.81545493 325.35593041 -206.74267578 323.31738281 C-206.07645898 305.0924012 -203.51211236 291.50867329 -190.57421875 278.14453125 C-183.08440167 272.3773721 -174.0036294 269.52264216 -165.12109375 266.61328125 C-163.94140015 266.22082718 -162.76170654 265.82837311 -161.54626465 265.42402649 C-159.0733583 264.60295167 -156.59925634 263.78546977 -154.12402344 262.97143555 C-150.32076208 261.72028525 -146.52152611 260.45777322 -142.72265625 259.19335938 C-140.3140213 258.39517152 -137.90517459 257.59762231 -135.49609375 256.80078125 C-134.35660278 256.42273849 -133.21711182 256.04469574 -132.04309082 255.65519714 C-130.47005188 255.13884453 -130.47005188 255.13884453 -128.86523438 254.61206055 C-127.94053345 254.3073735 -127.01583252 254.00268646 -126.06311035 253.68876648 C-123.83984375 253.0390625 -123.83984375 253.0390625 -121.83984375 253.0390625 C-121.5459375 252.01039063 -121.5459375 252.01039063 -121.24609375 250.9609375 C-119.31855038 246.95593073 -116.51184946 244.35097691 -113.33984375 241.2890625 C-112.74558594 240.69996094 -112.15132812 240.11085937 -111.5390625 239.50390625 C-106.03480723 234.09905063 -106.03480723 234.09905063 -102.89453125 233.94140625 C-100.87630208 233.97395833 -98.85807292 234.00651042 -96.83984375 234.0390625 C-95.06027054 227.57478055 -95.06027054 227.57478055 -95.83984375 221.0390625 C-98.26862687 218.71587864 -100.87043855 217.02231492 -103.6875 215.19140625 C-119.12609711 204.65030711 -129.21847064 187.20481215 -132.83984375 169.0390625 C-132.83984375 167.7190625 -132.83984375 166.3990625 -132.83984375 165.0390625 C-133.96519531 164.90951172 -133.96519531 164.90951172 -135.11328125 164.77734375 C-146.19607197 163.25590271 -153.93050908 160.13181665 -161.1484375 151.3828125 C-167.88437302 142.04895266 -169.04368683 132.3109206 -167.83984375 121.0390625 C-166.59034546 115.90093868 -165.11716768 110.89312391 -160.89575195 107.45629883 C-157.27319876 104.47589068 -155.12344587 102.40119093 -154.14599609 97.70654297 C-153.9704396 94.39916117 -153.90694412 91.15264571 -153.98184204 87.8444519 C-154.05889721 84.25789809 -153.99778546 80.67274154 -153.95703125 77.0859375 C-153.9502108 76.0317588 -153.9502108 76.0317588 -153.94325256 74.95628357 C-153.72049852 49.94315983 -144.49299441 28.71794662 -126.83984375 11.0390625 C-126.18242187 10.37003906 -125.525 9.70101563 -124.84765625 9.01171875 C-95.34520933 -18.90797887 -33.190253 -22.91816644 0 0 Z " fill="#040202" transform="translate(312.83984375,12.9609375)"/>
<path d="M0 0 C1.10515795 -0.00706559 2.21031591 -0.01413118 3.3489635 -0.02141088 C5.16221806 -0.01778826 5.16221806 -0.01778826 7.01210403 -0.01409245 C8.9445909 -0.02194746 8.9445909 -0.02194746 10.91611791 -0.02996117 C14.4903639 -0.04413722 18.06452291 -0.04580454 21.63879299 -0.04536426 C25.49441894 -0.04701282 29.3500091 -0.06008006 33.205616 -0.07155704 C41.63540692 -0.09440311 50.06517266 -0.10232721 58.49499035 -0.10738349 C63.75941912 -0.11064093 69.02384059 -0.11716368 74.28826523 -0.12438488 C88.86651118 -0.14395019 103.44475033 -0.16035484 118.02301025 -0.16326141 C118.95583575 -0.16344898 119.88866124 -0.16363655 120.84975417 -0.16382981 C122.74078512 -0.16419606 124.63181607 -0.16455975 126.52284703 -0.16492092 C127.4615461 -0.16510373 128.40024518 -0.16528654 129.36738968 -0.16547489 C130.77715863 -0.16574572 130.77715863 -0.16574572 132.21540776 -0.16602201 C147.44420961 -0.16956364 162.67287005 -0.19658562 177.90162286 -0.23397278 C193.54007381 -0.27205826 209.17845459 -0.29141891 224.81695294 -0.29172093 C233.59609125 -0.29230544 242.37506086 -0.30079339 251.15415573 -0.32971859 C258.62967717 -0.35423569 266.10496839 -0.36151319 273.58051917 -0.34647106 C277.39338909 -0.33930346 281.20580444 -0.34015255 285.01862335 -0.36288166 C289.15594424 -0.3873085 293.29223159 -0.37283197 297.4295845 -0.35466862 C298.62949799 -0.36786858 299.82941148 -0.38106855 301.06568599 -0.39466852 C309.60811146 -0.30899348 315.34654423 1.62858638 321.77949905 7.28740597 C322.29770218 7.91775753 322.8159053 8.54810909 323.34981155 9.19756222 C323.88348343 9.82533566 324.4171553 10.45310909 324.96699905 11.09990597 C328.76671231 16.54353661 329.91786127 21.02516299 329.87886429 27.60112667 C329.88915916 28.8243362 329.88915916 28.8243362 329.89966202 30.07225704 C329.91789596 32.75613194 329.9140965 35.43942017 329.9084053 38.12334347 C329.91296965 39.99893031 329.91827598 41.87451548 329.9242897 43.75009823 C329.93321482 47.67821203 329.93080557 51.60612247 329.92085648 55.53423214 C329.90938401 60.55104801 329.92955489 65.56715819 329.95877361 70.58388138 C329.97718488 74.45740832 329.97683307 78.33076783 329.97113609 82.20432758 C329.97098339 84.05297172 329.97698508 85.90162757 329.98942757 87.75022984 C330.09623572 106.22454822 330.09623572 106.22454822 325.47481155 113.26006222 C324.81481155 114.31193722 324.15481155 115.36381222 323.47481155 116.44756222 C318.12250198 122.29817337 309.92564006 125.52944011 302.15913773 126.01510906 C299.8622484 126.04768213 297.5647505 126.04822172 295.2677803 126.02196407 C293.99192566 126.03132402 292.71607101 126.04068396 291.40155411 126.05032754 C287.89421296 126.07516677 284.38786261 126.06309245 280.88051987 126.04441023 C277.08489958 126.03075408 273.28944181 126.05182851 269.49385452 126.06828976 C262.07178614 126.09488962 254.65008299 126.08924281 247.22800064 126.07181391 C241.19289034 126.0582319 235.15788199 126.05643955 229.12276077 126.06295681 C228.26193862 126.06387621 227.40111647 126.06479561 226.51420879 126.06574287 C224.76515195 126.06766133 223.01609513 126.06960661 221.26703835 126.07157841 C204.88813005 126.08866426 188.50942365 126.06905262 172.13054848 126.03677621 C158.09416012 126.00997171 144.05806954 126.01462852 130.02168655 126.04228878 C113.69911171 126.07443944 97.37671357 126.08701652 81.05411148 126.0686152 C79.31169513 126.06670402 77.56927874 126.06481779 75.82686234 126.06295681 C74.54110133 126.06156833 74.54110133 126.06156833 73.22936535 126.0601518 C67.20550589 126.05498368 61.18175904 126.06368865 55.15791702 126.07783413 C47.81103362 126.09470815 40.46453455 126.09001249 33.11769485 126.05814967 C29.37321716 126.04244223 25.62937891 126.03609926 21.88490677 126.05604458 C17.81666859 126.07738582 13.75002749 126.05180915 9.6818428 126.02196407 C8.51100647 126.0353484 7.34017014 126.04873273 6.13385391 126.06252265 C-2.98344 125.93322682 -11.24673231 123.56350989 -17.82906723 116.9427259 C-23.27409567 110.41671011 -24.82419773 104.35567881 -24.83158493 95.91899776 C-24.83990845 95.10352474 -24.84823196 94.28805172 -24.85680771 93.44786739 C-24.88081351 90.76412269 -24.88966831 88.0806215 -24.8962822 85.39678097 C-24.90525579 83.52119534 -24.91437776 81.64561042 -24.9236412 79.77002621 C-24.94010823 75.84196392 -24.94782713 71.91398662 -24.95072556 67.9858923 C-24.95610653 62.968998 -24.99378466 57.95290992 -25.03946972 52.93624306 C-25.06930983 49.06273179 -25.07645062 45.18941304 -25.07745171 41.31579685 C-25.0816403 39.46712521 -25.0940196 37.61845228 -25.11496925 35.7698946 C-25.23314617 24.44053457 -25.08795004 16.49911846 -17.24393845 7.70146847 C-16.51175095 7.08142941 -15.77956345 6.46139034 -15.02518845 5.82256222 C-13.9269072 4.86543331 -13.9269072 4.86543331 -12.80643845 3.88896847 C-8.65943933 0.92784068 -5.05948489 0.01035577 0 0 Z " fill="#FA647D" transform="translate(103.52518844604492,376.7399377822876)"/>
<path d="M0 0 C2.41313472 1.31547368 4.43426269 2.58150718 6.625 4.1875 C23.58474458 15.83235489 44.23229343 18.90579963 64.40625 15.34765625 C74.50035143 12.87714613 84.72133678 8.50367918 92.9375 2.0625 C96.67774487 -0.45644042 98.57584854 -0.73735858 103 0 C108.40451666 2.95961627 111.65812773 8.91504642 113.55142212 14.6786499 C114.17404027 17.90064272 114.17268272 21.09112373 114.19287109 24.36035156 C114.20513733 25.46384445 114.20513733 25.46384445 114.21765137 26.58963013 C114.24244486 29.02328707 114.25901692 31.45688537 114.2734375 33.890625 C114.27876118 34.72752617 114.28408485 35.56442734 114.28956985 36.42668915 C114.31629102 40.86713239 114.33565854 45.30754778 114.35009766 49.74804688 C114.36336266 53.39479064 114.39107727 57.04096495 114.43212891 60.6875 C114.48194968 65.11425474 114.50627974 69.54049866 114.51332474 73.96752167 C114.51996305 75.64017061 114.53498631 77.31281154 114.55921555 78.98529816 C114.8230003 98.31596097 109.91801096 115.41567116 96.26171875 129.7265625 C95.51535156 130.47679687 94.76898438 131.22703125 94 132 C93.40832031 132.62648437 92.81664062 133.25296875 92.20703125 133.8984375 C79.73510886 146.06750968 62.25226339 150.52225586 45.35351562 150.34765625 C27.83851646 149.84533929 12.11780499 142.65938287 0 130 C-0.62003906 129.41089844 -1.24007812 128.82179687 -1.87890625 128.21484375 C-12.16893143 117.74065705 -18.12098748 101.73450022 -18.17700195 87.31738281 C-18.18357315 86.57179108 -18.19014435 85.82619934 -18.19691467 85.05801392 C-18.21652041 82.60638301 -18.22828142 80.15481299 -18.23828125 77.703125 C-18.24439454 76.43929111 -18.24439454 76.43929111 -18.25063133 75.14992523 C-18.27143746 70.6904475 -18.2857629 66.23100004 -18.29516602 61.77148438 C-18.30622173 57.18752092 -18.34062756 52.60404398 -18.38033772 48.02025223 C-18.40659092 44.47527213 -18.41486551 40.93040657 -18.41844749 37.38533783 C-18.42329061 35.69658877 -18.43483899 34.00784404 -18.45348549 32.31919098 C-18.57919481 20.18099207 -17.85545261 10.08849084 -9 1 C-5.87722142 -0.56138929 -3.45603889 -0.29572292 0 0 Z " fill="#F8CFB3" transform="translate(208,83)"/>
<path d="M0 0 C6.90226365 6.11826489 9.89715355 14.35461354 10.5 23.4375 C10.73156143 26.54633533 10.87653305 27.80245288 12.5625 30.5 C15.28844117 32.17750226 17.86774787 32.71991853 20.97265625 33.390625 C25.78443369 34.83693961 28.44157051 37.96291667 30.75 42.25 C33.99579719 51.98739158 34.24754439 60.93409043 34.125 71.0625 C34.11494832 72.51496778 34.10582635 73.9674423 34.09765625 75.41992188 C34.07582017 78.94675682 34.04141149 82.4733342 34 86 C31.03 85.34 28.06 84.68 25 84 C24.67128906 82.44152344 24.67128906 82.44152344 24.3359375 80.8515625 C21.95069385 70.13918253 18.91972593 60.1792916 10 53 C5.17187541 50.40711828 1.46367337 49.32902257 -4 50 C-7.78499764 51.35582005 -11.09001306 53.37252535 -14.390625 55.6484375 C-28.06782642 65.02591991 -45.50535782 69.16627095 -62.00927734 66.69970703 C-74.33256219 64.37707111 -84.92861334 59.45846986 -95.16015625 52.19921875 C-99.16701145 49.58753181 -103.37431772 49.44458654 -108 50 C-114.53150871 51.72600706 -117.89767929 55.74736281 -121.46484375 61.2890625 C-125.59011051 68.57388471 -127.59147146 75.78358349 -129 84 C-133.455 84.495 -133.455 84.495 -138 85 C-138.57831223 55.74629827 -136.69322573 31.60106852 -115.625 9.25 C-88.43544931 -16.46652763 -30.65998165 -24.36320999 0 0 Z " fill="#5A5C5F" transform="translate(308,23)"/>
<path d="M0 0 C2.17895508 1.82250977 2.17895508 1.82250977 4.51953125 4.19140625 C5.37740234 5.05443359 6.23527344 5.91746094 7.11914062 6.80664062 C8.45235352 8.17079102 8.45235352 8.17079102 9.8125 9.5625 C10.68970703 10.44486328 11.56691406 11.32722656 12.47070312 12.23632812 C16.99461284 16.81437587 21.38368801 21.4566783 25.54614258 26.36669922 C27.84501993 28.9493171 29.85082837 30.55138105 33 32 C36.09134724 32.01525336 38.97111685 31.56985519 42 31 C53.66524737 46.19606778 44.75940059 71.57892781 43 88 C20.23 88 -2.54 88 -26 88 C-26.375 70.625 -26.375 70.625 -26.47802734 65.14306641 C-26.51322607 63.71254592 -26.54914652 62.28204292 -26.5859375 60.8515625 C-26.59729736 60.10608154 -26.60865723 59.36060059 -26.62036133 58.5925293 C-26.59958292 54.33557923 -26.59958292 54.33557923 -29 51 C-32.30683466 51.28983269 -32.30683466 51.28983269 -35 53 C-35.15994703 55.591294 -35.25946338 58.15973375 -35.31640625 60.75390625 C-35.33505737 61.44093628 -35.3537085 62.12796631 -35.3729248 62.83581543 C-35.44141188 65.41124158 -35.50143947 67.98688707 -35.5625 70.5625 C-35.706875 76.316875 -35.85125 82.07125 -36 88 C-49.53 88 -63.06 88 -77 88 C-77.1697524 76.11733196 -77.03252555 64.30464781 -76.375 52.4375 C-76.33004395 51.28604492 -76.28508789 50.13458984 -76.23876953 48.94824219 C-75.61307723 39.09890891 -72.48969722 30.4407781 -65.75 23.0625 C-58.67328178 16.83491157 -49.47221841 13.90115641 -40.6640625 10.9765625 C-39.62228851 10.62612885 -38.58051453 10.27569519 -37.50717163 9.91464233 C-35.32521574 9.18329832 -33.14197689 8.45577171 -30.95751953 7.73193359 C-27.60901022 6.61968882 -24.26738832 5.48825838 -20.92578125 4.35546875 C-18.79726339 3.64466921 -16.66836995 2.93499318 -14.5390625 2.2265625 C-13.04217392 1.71737778 -13.04217392 1.71737778 -11.51504517 1.19790649 C-10.12241959 0.74150284 -10.12241959 0.74150284 -8.70166016 0.27587891 C-7.48115463 -0.1311879 -7.48115463 -0.1311879 -6.23599243 -0.54647827 C-3.73674068 -1.05339634 -2.37220721 -0.89315108 0 0 Z " fill="#D8E4EF" transform="translate(193,278)"/>
<path d="M0 0 C10.33283209 2.73540102 20.46677654 5.96235073 30.61645508 9.30541992 C32.66708775 9.97787876 34.71984898 10.64388035 36.7746582 11.3034668 C39.77536652 12.2670321 42.76892561 13.25044367 45.76171875 14.23828125 C47.12450203 14.66987297 47.12450203 14.66987297 48.51481628 15.11018372 C58.08094978 18.31991172 65.91907461 24.08580337 71.09960938 32.86303711 C74.35017019 39.53099745 74.86507645 45.91132699 75.25 53.25 C75.36384033 55.08062988 75.36384033 55.08062988 75.47998047 56.94824219 C76.09618584 67.64869736 76.15307421 78.28480518 76 89 C62.47 89 48.94 89 35 89 C34.625 71.625 34.625 71.625 34.52197266 66.14306641 C34.48677393 64.71254592 34.45085348 63.28204292 34.4140625 61.8515625 C34.40270264 61.10608154 34.39134277 60.36060059 34.37963867 59.5925293 C34.40041708 55.33557923 34.40041708 55.33557923 32 52 C28.69316534 52.28983269 28.69316534 52.28983269 26 54 C25.84005297 56.591294 25.74053662 59.15973375 25.68359375 61.75390625 C25.66494263 62.44093628 25.6462915 63.12796631 25.6270752 63.83581543 C25.55858812 66.41124158 25.49856053 68.98688707 25.4375 71.5625 C25.293125 77.316875 25.14875 83.07125 25 89 C2.23 89 -20.54 89 -44 89 C-44.99 79.3784375 -44.99 79.3784375 -46 69.5625 C-46.20882813 67.55615479 -46.41765625 65.54980957 -46.6328125 63.48266602 C-46.79723317 61.86478245 -46.96131745 60.24686465 -47.125 58.62890625 C-47.21136719 57.81127808 -47.29773438 56.9936499 -47.38671875 56.15124512 C-48.98152014 40.22459019 -48.98152014 40.22459019 -45.5 35.4375 C-45.0359375 34.77621094 -44.571875 34.11492187 -44.09375 33.43359375 C-43.7328125 32.96050781 -43.371875 32.48742187 -43 32 C-42.41992188 32.11859375 -41.83984375 32.2371875 -41.2421875 32.359375 C-37.10313256 33.04238737 -34.73682993 33.35367837 -30.875 31.5 C-26.20154631 27.43612722 -21.95427313 23.15064837 -17.9375 18.4375 C-12.34849807 11.93416826 -6.09707041 6.02096273 0 0 Z " fill="#D9E5F0" transform="translate(320,277)"/>
<path d="M0 0 C0.04898438 0.70125 0.09796875 1.4025 0.1484375 2.125 C0.22320312 3.07375 0.29796875 4.0225 0.375 5 C0.47941406 6.3921875 0.47941406 6.3921875 0.5859375 7.8125 C0.86397825 10.81739042 0.86397825 10.81739042 1.64849854 12.84155273 C2.37769018 14.94902186 2.85374303 16.77120901 3 19 C1.44536477 21.65238156 0.28609198 23.16981982 -1.8515625 25.25 C-2.38083344 25.79358154 -2.91010437 26.33716309 -3.45541382 26.8972168 C-4.58148211 28.03882515 -5.72046198 29.16782153 -6.87109375 30.28466797 C-8.61134872 31.98664895 -10.28512155 33.73872003 -11.9609375 35.50390625 C-16.66599224 40.29449486 -21.0582021 44.72015157 -28 45.5 C-35.68249116 44.63694135 -40.61298602 39.11269335 -45.69628906 33.75830078 C-47.38330598 31.99130022 -49.12211566 30.29125917 -50.875 28.58984375 C-51.96968971 27.48004701 -53.06096812 26.36687274 -54.1484375 25.25 C-54.6679599 24.7444458 -55.1874823 24.2388916 -55.7227478 23.71801758 C-57.12255859 22.203125 -57.12255859 22.203125 -59 19 C-58.81257948 16.13324958 -57.95799135 13.68886759 -57 11 C-56.74511972 9.17255645 -56.52822991 7.33875895 -56.375 5.5 C-56.30023438 4.6440625 -56.22546875 3.788125 -56.1484375 2.90625 C-56.09945312 2.2771875 -56.05046875 1.648125 -56 1 C-55.42894531 1.12117187 -54.85789063 1.24234375 -54.26953125 1.3671875 C-33.35225557 5.69031284 -19.66871919 0 0 0 Z " fill="#F5CCB1" transform="translate(284,238)"/>
<path d="M0 0 C1.00095703 -0.00386719 2.00191406 -0.00773437 3.03320312 -0.01171875 C4.60038086 0.00568359 4.60038086 0.00568359 6.19921875 0.0234375 C7.23240234 0.01183594 8.26558594 0.00023437 9.33007812 -0.01171875 C15.73565295 0.01293388 20.63497107 0.36295808 25.53125 4.93359375 C29.30077838 9.86297702 30.2988583 12.11330936 29.88671875 18.3984375 C28.23465535 23.5285291 26.49544628 26.5179828 21.88671875 29.3984375 C20.89671875 29.3984375 19.90671875 29.3984375 18.88671875 29.3984375 C19.39440796 30.53273193 19.39440796 30.53273193 19.91235352 31.68994141 C21.1675868 34.5138375 22.40893919 37.34332702 23.64135742 40.17724609 C24.43856582 41.99909254 25.25141404 43.8140693 26.06445312 45.62890625 C26.8137207 47.35947266 26.8137207 47.35947266 27.578125 49.125 C28.04420166 50.18283691 28.51027832 51.24067383 28.99047852 52.33056641 C29.99949657 55.78448111 29.74147048 57.93862016 28.88671875 61.3984375 C26.07421875 62.0859375 26.07421875 62.0859375 22.88671875 62.3984375 C19.70699941 60.09796455 18.51917156 56.77997291 16.96875 53.26953125 C16.43701172 52.07005859 15.90527344 50.87058594 15.35742188 49.63476562 C15.08551025 49.01158447 14.81359863 48.38840332 14.53344727 47.74633789 C13.69908866 45.8356396 12.85337802 43.93028267 12.00585938 42.02539062 C7.88671875 32.67559524 7.88671875 32.67559524 7.88671875 30.3984375 C5.90671875 30.3984375 3.92671875 30.3984375 1.88671875 30.3984375 C1.91028442 31.69261597 1.91028442 31.69261597 1.93432617 33.01293945 C1.9854783 36.21653017 2.02308035 39.41991265 2.05151367 42.6237793 C2.06659272 44.00991669 2.08705925 45.39600644 2.11303711 46.78198242 C2.14945591 48.77501896 2.16484893 50.76840473 2.1796875 52.76171875 C2.19539795 53.96094971 2.2111084 55.16018066 2.22729492 56.39575195 C1.88671875 59.3984375 1.88671875 59.3984375 0.5637207 61.32495117 C-1.11328125 62.3984375 -1.11328125 62.3984375 -4.23828125 62.2109375 C-5.18703125 61.9428125 -6.13578125 61.6746875 -7.11328125 61.3984375 C-8.4000297 58.82494061 -8.2543642 56.96000491 -8.27441406 54.07836914 C-8.28402161 52.96704117 -8.29362915 51.8557132 -8.30352783 50.71070862 C-8.30777771 49.50551071 -8.31202759 48.30031281 -8.31640625 47.05859375 C-8.32210632 45.82556015 -8.3278064 44.59252655 -8.3336792 43.3221283 C-8.34313855 40.71028505 -8.34966688 38.09842981 -8.35351562 35.48657227 C-8.35791345 32.80446867 -8.37185281 30.12268441 -8.39453125 27.44067383 C-8.42488905 23.58404704 -8.43555182 19.72782647 -8.44140625 15.87109375 C-8.45375305 14.66792007 -8.46609985 13.4647464 -8.4788208 12.22511292 C-8.4758197 11.11063278 -8.4728186 9.99615265 -8.46972656 8.84790039 C-8.47337219 7.86576065 -8.47701782 6.88362091 -8.48077393 5.87171936 C-8.11328125 3.3984375 -8.11328125 3.3984375 -6.73829651 1.58210754 C-4.45644873 -0.08000292 -2.80385941 0.01042973 0 0 Z " fill="#050202" transform="translate(203.11328125,407.6015625)"/>
<path d="M0 0 C2.85665781 1.01294263 4.07191749 2.03851103 6.08520508 4.27758789 C6.70073242 4.95112305 7.31625977 5.6246582 7.95043945 6.31860352 C8.5762793 7.0256543 9.20211914 7.73270508 9.84692383 8.46118164 C10.49209961 9.17209961 11.13727539 9.88301758 11.80200195 10.61547852 C13.38967441 12.36779849 14.96642396 14.12876885 16.53442383 15.89868164 C19.80079999 14.36049545 21.69844845 12.86280692 24.03442383 10.08618164 C24.64157227 9.37719727 25.2487207 8.66821289 25.87426758 7.93774414 C27.18223488 6.33125253 28.40651013 4.65661934 29.59692383 2.96118164 C31.53442383 0.89868164 31.53442383 0.89868164 34.59692383 -0.10131836 C37.53442383 -0.10131836 37.53442383 -0.10131836 39.1937561 1.05908203 C41.02206023 3.56779281 40.91507449 5.24205664 40.92260742 8.33227539 C40.9320639 9.44352783 40.94152039 10.55478027 40.95126343 11.69970703 C40.94519073 12.89974365 40.93911804 14.09978027 40.93286133 15.33618164 C40.93573151 16.56780029 40.93860168 17.79941895 40.94155884 19.06835938 C40.94412541 22.34216121 40.93203993 25.61553701 40.9152832 28.88928223 C40.90942936 30.89678549 40.91526178 32.90389533 40.92553711 34.91137695 C40.94403363 38.76149859 40.94183375 42.61103598 40.93286133 46.46118164 C40.94197037 48.26123657 40.94197037 48.26123657 40.95126343 50.09765625 C40.94180695 51.20890869 40.93235046 52.32016113 40.92260742 53.46508789 C40.92022064 54.44421143 40.91783386 55.42333496 40.91537476 56.43212891 C40.53442383 58.89868164 40.53442383 58.89868164 39.1703186 60.71875 C36.86786167 62.37945693 35.30405285 62.25376228 32.53442383 61.89868164 C30.53442383 59.89868164 30.53442383 59.89868164 30.30737305 55.90795898 C30.30769046 54.18347995 30.31903259 52.45898131 30.33911133 50.73461914 C30.34194122 49.82741119 30.34477112 48.92020325 30.34768677 47.98550415 C30.3589023 45.08143041 30.3840092 42.17766252 30.40942383 39.27368164 C30.41945186 37.30754025 30.42857802 35.34139404 30.43676758 33.37524414 C30.45884611 28.54960505 30.49338518 23.72419524 30.53442383 18.89868164 C29.87442383 18.89868164 29.21442383 18.89868164 28.53442383 18.89868164 C28.27274414 19.48133789 28.01106445 20.06399414 27.74145508 20.66430664 C26.46436858 23.0283632 25.08351162 24.71692314 23.22192383 26.64868164 C22.64829102 27.26227539 22.0746582 27.87586914 21.48364258 28.50805664 C18.8879107 30.35992147 17.67991899 30.36765367 14.53442383 29.89868164 C12.07739258 27.71118164 12.07739258 27.71118164 9.72192383 24.89868164 C8.93172852 23.97055664 8.1415332 23.04243164 7.32739258 22.08618164 C6.73571289 21.36430664 6.1440332 20.64243164 5.53442383 19.89868164 C5.51984131 21.06439697 5.50525879 22.2301123 5.49023438 23.43115234 C5.43229266 27.75324286 5.35505989 32.07481011 5.27197266 36.39648438 C5.23870381 38.26749178 5.21067798 40.13860002 5.18798828 42.00976562 C5.15447794 44.69843548 5.10216518 47.38617962 5.04614258 50.07446289 C5.03655769 51.3308532 5.03655769 51.3308532 5.02677917 52.61262512 C4.87838707 58.46446832 4.87838707 58.46446832 3.16755676 60.62419128 C1.53442383 61.89868164 1.53442383 61.89868164 -1.02807617 62.21118164 C-3.46557617 61.89868164 -3.46557617 61.89868164 -5.46557617 59.89868164 C-5.72627258 57.51441956 -5.72627258 57.51441956 -5.74023438 54.48681641 C-5.74976639 53.35546768 -5.7592984 52.22411896 -5.76911926 51.05848694 C-5.76820786 49.83141525 -5.76729645 48.60434357 -5.76635742 47.34008789 C-5.77064255 46.08485825 -5.77492767 44.8296286 -5.77934265 43.53636169 C-5.78509516 40.87728958 -5.78651076 38.21860447 -5.78125 35.55957031 C-5.77545665 32.15186327 -5.79238008 28.74469999 -5.81559467 25.33708286 C-5.83386966 22.08808842 -5.83014677 18.83912451 -5.82885742 15.59008789 C-5.83806717 14.36504044 -5.84727692 13.13999298 -5.85676575 11.87782288 C-5.85053696 10.74332199 -5.84430817 9.60882111 -5.83789062 8.43994141 C-5.83852005 7.44003677 -5.83914948 6.44013214 -5.83979797 5.40992737 C-5.46557617 2.89868164 -5.46557617 2.89868164 -4.09640503 1.04602051 C-2.46557617 -0.10131836 -2.46557617 -0.10131836 0 0 Z " fill="#060203" transform="translate(311.465576171875,408.101318359375)"/>
<path d="M0 0 C2.4375 0.8125 2.4375 0.8125 4.4375 2.8125 C4.58307157 5.72975418 4.62348967 8.52564805 4.5625 11.4375 C4.52125 14.20125 4.48 16.965 4.4375 19.8125 C10.3775 19.8125 16.3175 19.8125 22.4375 19.8125 C22.31908664 14.35245132 22.31908664 14.35245132 22.16723633 8.89331055 C22.15974365 8.21051025 22.15225098 7.52770996 22.14453125 6.82421875 C22.1288208 6.12772217 22.11311035 5.43122559 22.09692383 4.71362305 C22.54425662 2.21657613 23.43377223 1.32281912 25.4375 -0.1875 C28.77942692 0.05703124 30.04293557 0.41793557 32.4375 2.8125 C32.69819641 5.15879822 32.69819641 5.15879822 32.7121582 8.13256836 C32.72645622 9.79956032 32.72645622 9.79956032 32.74104309 11.50022888 C32.74013168 12.70542679 32.73922028 13.91062469 32.73828125 15.15234375 C32.74256638 16.38537735 32.7468515 17.61841095 32.75126648 18.8888092 C32.75849425 22.17074711 32.75537515 25.45250258 32.74969482 28.73443604 C32.74999947 30.74649306 32.76003448 32.75825564 32.77368164 34.77026367 C32.79811045 38.62693194 32.80233929 42.48310794 32.80078125 46.33984375 C32.809991 47.54301743 32.81920074 48.7461911 32.82868958 49.98582458 C32.82246078 51.10030472 32.81623199 52.21478485 32.80981445 53.36303711 C32.81044388 54.34517685 32.8110733 55.32731659 32.8117218 56.33921814 C32.4375 58.8125 32.4375 58.8125 31.0743866 60.63356018 C28.77106006 62.29249207 27.20697238 62.16756056 24.4375 61.8125 C22.4375 59.8125 22.4375 59.8125 22.21044922 56.83154297 C22.22092285 55.58518066 22.23139648 54.33881836 22.2421875 53.0546875 C22.2450174 52.39163605 22.24784729 51.72858459 22.25076294 51.04544067 C22.26196565 48.92594417 22.28706949 46.80686896 22.3125 44.6875 C22.32252972 43.25130818 22.33165559 41.81510975 22.33984375 40.37890625 C22.36020461 36.85647762 22.3993506 33.33496083 22.4375 29.8125 C16.4975 29.8125 10.5575 29.8125 4.4375 29.8125 C4.48970703 32.90044922 4.48970703 32.90044922 4.54296875 36.05078125 C4.56382947 38.04645705 4.58458365 40.04213556 4.60229492 42.0378418 C4.61737397 43.42397919 4.6378405 44.81006894 4.66381836 46.19604492 C4.70023716 48.18908146 4.71563018 50.18246723 4.73046875 52.17578125 C4.7461792 53.37501221 4.76188965 54.57424316 4.77807617 55.80981445 C4.4375 58.8125 4.4375 58.8125 3.0793457 60.70385742 C0.74015268 62.28337795 -0.80803694 62.23626355 -3.5625 61.8125 C-5.80444697 58.44957954 -5.8186437 57.31345115 -5.8371582 53.37890625 C-5.84669022 52.26765381 -5.85622223 51.15640137 -5.86604309 50.01147461 C-5.86513168 48.81143799 -5.86422028 47.61140137 -5.86328125 46.375 C-5.86756638 45.14338135 -5.8718515 43.9117627 -5.87626648 42.64282227 C-5.88348636 39.36911868 -5.88038006 36.09559848 -5.87469482 32.82189941 C-5.87499971 30.81442 -5.88504271 28.80723508 -5.89868164 26.79980469 C-5.92310625 22.94972798 -5.92733962 19.10014432 -5.92578125 15.25 C-5.934991 14.04996338 -5.94420074 12.84992676 -5.95368958 11.61352539 C-5.94746078 10.50227295 -5.94123199 9.39102051 -5.93481445 8.24609375 C-5.93544388 7.26697021 -5.9360733 6.28784668 -5.9367218 5.27905273 C-5.5625 2.8125 -5.5625 2.8125 -4.1993866 0.96118164 C-2.5625 -0.1875 -2.5625 -0.1875 0 0 Z " fill="#050202" transform="translate(121.5625,408.1875)"/>
<path d="M0 0 C0.69891357 -0.00287018 1.39782715 -0.00574036 2.11791992 -0.00869751 C3.59392101 -0.01073675 5.06994921 -0.00521653 6.54589844 0.00732422 C8.80465138 0.0233817 11.06161518 0.0074728 13.3203125 -0.01171875 C14.75521228 -0.00973629 16.19011095 -0.00589256 17.625 0 C18.93082031 0.00338379 20.23664063 0.00676758 21.58203125 0.01025391 C24.8125 0.3984375 24.8125 0.3984375 26.7421875 1.76318359 C28.25835326 4.07962481 28.15956785 5.69130825 27.8125 8.3984375 C25.8125 10.3984375 25.8125 10.3984375 23.19873047 10.62548828 C22.11994629 10.61501465 21.04116211 10.60454102 19.9296875 10.59375 C18.76308594 10.58730469 17.59648437 10.58085937 16.39453125 10.57421875 C15.17121094 10.55746094 13.94789063 10.54070312 12.6875 10.5234375 C11.45644531 10.51441406 10.22539062 10.50539063 8.95703125 10.49609375 C5.90866185 10.47246298 2.86067618 10.43951804 -0.1875 10.3984375 C-0.1875 13.6984375 -0.1875 16.9984375 -0.1875 20.3984375 C0.86050781 20.36363281 1.90851563 20.32882812 2.98828125 20.29296875 C4.36717147 20.26482813 5.74607902 20.23752826 7.125 20.2109375 C7.81529297 20.18580078 8.50558594 20.16066406 9.21679688 20.13476562 C14.32258741 20.06076866 14.32258741 20.06076866 16.7734375 21.75 C18.24166387 24.07929146 18.15808892 25.70284389 17.8125 28.3984375 C15.8125 30.3984375 15.8125 30.3984375 12.1171875 30.59375 C10.64048332 30.5823084 9.16388199 30.55633657 7.6875 30.5234375 C5.08875 30.4821875 2.49 30.4409375 -0.1875 30.3984375 C-0.1875 37.6584375 -0.1875 44.9184375 -0.1875 52.3984375 C1.58238281 52.36363281 3.35226563 52.32882812 5.17578125 52.29296875 C7.49217803 52.26483438 9.80858505 52.23753384 12.125 52.2109375 C13.29224609 52.18580078 14.45949219 52.16066406 15.66210938 52.13476562 C16.78037109 52.12509766 17.89863281 52.11542969 19.05078125 52.10546875 C20.08243408 52.0897583 21.11408691 52.07404785 22.17700195 52.05786133 C24.8125 52.3984375 24.8125 52.3984375 26.64916992 53.7565918 C28.30037105 56.08698584 28.24081745 57.61437408 27.8125 60.3984375 C22.85081068 63.70623038 16.89100234 62.73120515 11.07910156 62.71411133 C8.82047402 62.71094867 6.56315336 62.73442554 4.3046875 62.75976562 C2.86979332 62.76203844 1.43489562 62.7627422 0 62.76171875 C-1.30582031 62.76469971 -2.61164063 62.76768066 -3.95703125 62.77075195 C-7.1875 62.3984375 -7.1875 62.3984375 -8.86514282 61.21476746 C-10.67977267 58.72227404 -10.5682031 57.03355177 -10.57568359 53.96484375 C-10.58514008 52.85359131 -10.59459656 51.74233887 -10.6043396 50.59741211 C-10.59826691 49.39737549 -10.59219421 48.19733887 -10.5859375 46.9609375 C-10.58880768 45.72931885 -10.59167786 44.4977002 -10.59463501 43.22875977 C-10.59720158 39.95495793 -10.5851161 36.68158213 -10.56835938 33.40783691 C-10.56250553 31.40033365 -10.56833795 29.39322381 -10.57861328 27.38574219 C-10.5971098 23.53562055 -10.59490992 19.68608316 -10.5859375 15.8359375 C-10.59201019 14.63590088 -10.59808289 13.43586426 -10.6043396 12.19946289 C-10.59488312 11.08821045 -10.58542664 9.97695801 -10.57568359 8.83203125 C-10.57329681 7.85290771 -10.57091003 6.87378418 -10.56845093 5.86499023 C-10.1875 3.3984375 -10.1875 3.3984375 -8.86514282 1.58309937 C-6.08352001 -0.38113428 -3.343374 0.00866373 0 0 Z " fill="#060203" transform="translate(251.1875,407.6015625)"/>
<path d="M0 0 C0.69891357 -0.00287018 1.39782715 -0.00574036 2.11791992 -0.00869751 C3.59392101 -0.01073675 5.06994921 -0.00521653 6.54589844 0.00732422 C8.80465138 0.0233817 11.06161518 0.0074728 13.3203125 -0.01171875 C14.75521228 -0.00973629 16.19011095 -0.00589256 17.625 0 C18.93082031 0.00338379 20.23664063 0.00676758 21.58203125 0.01025391 C24.8125 0.3984375 24.8125 0.3984375 26.77734375 1.72802734 C27.8125 3.3984375 27.8125 3.3984375 27.5625 6.5234375 C26.8125 9.3984375 26.8125 9.3984375 25.8125 10.3984375 C23.88582493 10.48591957 21.95598139 10.50541084 20.02734375 10.49609375 C18.85751953 10.49287109 17.68769531 10.48964844 16.48242188 10.48632812 C15.25072266 10.47794922 14.01902344 10.46957031 12.75 10.4609375 C10.89665039 10.45416992 10.89665039 10.45416992 9.00585938 10.44726562 C5.94135883 10.43543358 2.87695279 10.41894923 -0.1875 10.3984375 C-0.1875 13.6984375 -0.1875 16.9984375 -0.1875 20.3984375 C0.86050781 20.36363281 1.90851563 20.32882812 2.98828125 20.29296875 C4.36717147 20.26482813 5.74607902 20.23752826 7.125 20.2109375 C7.81529297 20.18580078 8.50558594 20.16066406 9.21679688 20.13476562 C14.30096108 20.06108209 14.30096108 20.06108209 16.80859375 21.71484375 C17.8125 23.3984375 17.8125 23.3984375 17.5625 26.5234375 C16.8125 29.3984375 16.8125 29.3984375 15.8125 30.3984375 C13.1138095 30.47169186 10.44747444 30.49066101 7.75 30.4609375 C5.130625 30.4403125 2.51125 30.4196875 -0.1875 30.3984375 C-0.1875 37.6584375 -0.1875 44.9184375 -0.1875 52.3984375 C1.58238281 52.36363281 3.35226562 52.32882812 5.17578125 52.29296875 C7.49217803 52.26483438 9.80858505 52.23753384 12.125 52.2109375 C13.29224609 52.18580078 14.45949219 52.16066406 15.66210938 52.13476562 C16.78037109 52.12509766 17.89863281 52.11542969 19.05078125 52.10546875 C20.08243408 52.0897583 21.11408691 52.07404785 22.17700195 52.05786133 C24.8125 52.3984375 24.8125 52.3984375 26.68432617 53.72143555 C27.8125 55.3984375 27.8125 55.3984375 27.625 58.5234375 C27.356875 59.4721875 27.08875 60.4209375 26.8125 61.3984375 C22.31357993 63.64789753 16.16047563 62.62565677 11.15454102 62.63867188 C8.88716051 62.6483854 6.62068361 62.67941143 4.35351562 62.7109375 C2.91406789 62.71746692 1.47461366 62.72271764 0.03515625 62.7265625 C-1.27702881 62.7359082 -2.58921387 62.74525391 -3.94116211 62.75488281 C-7.1875 62.3984375 -7.1875 62.3984375 -8.86613464 61.21575928 C-10.67900106 58.72245824 -10.56820379 57.03326596 -10.57568359 53.96484375 C-10.58514008 52.85359131 -10.59459656 51.74233887 -10.6043396 50.59741211 C-10.59826691 49.39737549 -10.59219421 48.19733887 -10.5859375 46.9609375 C-10.58880768 45.72931885 -10.59167786 44.4977002 -10.59463501 43.22875977 C-10.59720158 39.95495793 -10.5851161 36.68158213 -10.56835938 33.40783691 C-10.56250553 31.40033365 -10.56833795 29.39322381 -10.57861328 27.38574219 C-10.5971098 23.53562055 -10.59490992 19.68608316 -10.5859375 15.8359375 C-10.59201019 14.63590088 -10.59808289 13.43586426 -10.6043396 12.19946289 C-10.59488312 11.08821045 -10.58542664 9.97695801 -10.57568359 8.83203125 C-10.57329681 7.85290771 -10.57091003 6.87378418 -10.56845093 5.86499023 C-10.1875 3.3984375 -10.1875 3.3984375 -8.86514282 1.58309937 C-6.08352001 -0.38113428 -3.343374 0.00866373 0 0 Z " fill="#040102" transform="translate(370.1875,407.6015625)"/>
<path d="M0 0 C0 16.17 0 32.34 0 49 C-7.16689214 49 -10.43525028 47.26389913 -16 43 C-21.32099249 37.50454874 -23.97259047 31.90312617 -24.4375 24.25 C-24.27747121 17.60880516 -21.76956368 12.05940174 -17.3203125 7.14453125 C-11.85498981 2.22574083 -7.511347 0 0 0 Z " fill="#F6CDB2" transform="translate(179,118)"/>
<path d="M0 0 C8.39442025 1.04930253 13.21267832 2.62130692 18.8125 8.875 C23.38640362 15.40914803 25.08441786 21.11989689 24 29 C22.01272992 35.64560208 18.63395058 41.73327835 12.6328125 45.4765625 C7.94759351 47.96515063 5.46129176 49 0 49 C0 32.83 0 16.66 0 0 Z " fill="#F6CEB2" transform="translate(333,118)"/>
<path d="M0 0 C0.67675781 -0.00773437 1.35351562 -0.01546875 2.05078125 -0.0234375 C5.74919257 -0.00884811 7.34603337 0.14735558 10.5 2.25 C10.8125 5.25 10.8125 5.25 10.5 8.25 C9.84 8.91 9.18 9.57 8.5 10.25 C7.51 10.25 6.52 10.25 5.5 10.25 C5.5 24.11 5.5 37.97 5.5 52.25 C7.15 52.91 8.8 53.57 10.5 54.25 C10.625 57.125 10.625 57.125 10.5 60.25 C7.87276176 62.87723824 5.95788327 62.51115971 2.37890625 62.5234375 C1.59386719 62.51570313 0.80882812 62.50796875 0 62.5 C-1.17755859 62.51160156 -1.17755859 62.51160156 -2.37890625 62.5234375 C-8.24669213 62.50330787 -8.24669213 62.50330787 -10.5 60.25 C-10.75 57.25 -10.75 57.25 -10.5 54.25 C-9.84 53.59 -9.18 52.93 -8.5 52.25 C-7.18 52.25 -5.86 52.25 -4.5 52.25 C-4.5 38.39 -4.5 24.53 -4.5 10.25 C-6.15 9.92 -7.8 9.59 -9.5 9.25 C-10.5 8.25 -10.5 8.25 -10.75 5.3125 C-10.6675 4.301875 -10.585 3.29125 -10.5 2.25 C-6.87653931 -0.16564046 -4.18396018 -0.04781669 0 0 Z " fill="#080304" transform="translate(174.5,407.75)"/>
<path d="M0 0 C3.28615979 1.56797382 5.66880952 3.28480325 8.3125 5.8125 C9.03050781 6.47894531 9.74851562 7.14539063 10.48828125 7.83203125 C12 10 12 10 11.77832031 12.4050293 C10.93514408 15.21623386 10.03437748 16.54655968 8.05859375 18.6875 C7.42808105 19.37328125 6.79756836 20.0590625 6.14794922 20.765625 C2.17387366 24.89960312 -1.86266136 28.96544493 -5.9375 33 C-6.81212891 33.87011719 -7.68675781 34.74023438 -8.58789062 35.63671875 C-10.72297449 37.76013549 -12.86037205 39.88116378 -15 42 C-19.53451965 38.16171005 -23.84901916 34.25222428 -28 30 C-26.36221955 25.80374091 -23.26676818 23.01323215 -20.1171875 19.921875 C-19.54292023 19.35043762 -18.96865295 18.77900024 -18.37698364 18.19024658 C-16.5476419 16.37207055 -14.71145807 14.56098508 -12.875 12.75 C-11.63105226 11.51608671 -10.3875573 10.28171678 -9.14453125 9.046875 C-6.10157633 6.02593257 -3.05246746 3.01132908 0 0 Z " fill="#E7EEF6" transform="translate(299,258)"/>
<path d="M0 0 C4.19625909 1.63778045 6.98676785 4.73323182 10.078125 7.8828125 C10.64956238 8.45707977 11.22099976 9.03134705 11.80975342 9.62301636 C13.62792945 11.4523581 15.43901492 13.28854193 17.25 15.125 C18.48391329 16.36894774 19.71828322 17.6124427 20.953125 18.85546875 C23.97406743 21.89842367 26.98867092 24.94753254 30 28 C28.21799313 31.85027991 25.92324595 34.2799142 22.875 37.25 C21.96492188 38.14203125 21.05484375 39.0340625 20.1171875 39.953125 C19.41851562 40.62859375 18.71984375 41.3040625 18 42 C12.27840909 37.24220649 6.99720974 32.14801569 1.75 26.875 C0.94820312 26.07707031 0.14640625 25.27914063 -0.6796875 24.45703125 C-1.45054687 23.68488281 -2.22140625 22.91273438 -3.015625 22.1171875 C-3.70946289 21.42222168 -4.40330078 20.72725586 -5.11816406 20.01123047 C-10.00875683 14.78436186 -10.00875683 14.78436186 -9.97265625 11.55078125 C-8.72560695 8.28040697 -6.97453999 6.58160816 -4.4375 4.1875 C-3.61121094 3.39730469 -2.78492188 2.60710937 -1.93359375 1.79296875 C-1.29550781 1.20128906 -0.65742188 0.60960937 0 0 Z " fill="#E7EEF6" transform="translate(211,258)"/>
<path d="M0 0 C1.9375 1.5625 1.9375 1.5625 3 4 C3.1875 7.75 3.1875 7.75 3 11 C4.8871875 10.87625 4.8871875 10.87625 6.8125 10.75 C10.69727609 10.7706637 10.69727609 10.7706637 13.0625 12.5625 C14.39274773 16.0211441 13.85607025 18.4440159 13 22 C11 24 11 24 9.0546875 24.1953125 C7.03645833 24.13020833 5.01822917 24.06510417 3 24 C3.0928125 25.60875 3.0928125 25.60875 3.1875 27.25 C3 31 3 31 2 33.4375 C-0.71070476 35.5552381 -2.74871362 35.57130492 -6.125 35.37890625 C-8 35 -8 35 -10 33.4375 C-11.32761013 30.2014503 -11.19966912 27.46093134 -11 24 C-12.8871875 24.12375 -12.8871875 24.12375 -14.8125 24.25 C-18.69727609 24.2293363 -18.69727609 24.2293363 -21.0625 22.4375 C-22.40411569 18.9492992 -21.92678615 16.57474656 -21 13 C-17.3558226 10.5705484 -15.28758728 10.83820425 -11 11 C-11.0825 9.9275 -11.165 8.855 -11.25 7.75 C-11 4 -11 4 -9.4375 1.5625 C-6.07240983 -0.59460908 -3.91795996 -0.56988508 0 0 Z " fill="#6FD6F9" transform="translate(431,53)"/>
<path d="M0 0 C3.96 0 7.92 0 12 0 C14.3426414 14.22317993 16.41866191 28.55616401 16 43 C9.4 43 2.8 43 -4 43 C-4.15848528 34.76565605 -3.57235519 26.85558456 -2.5625 18.6875 C-2.42779297 17.54732422 -2.29308594 16.40714844 -2.15429688 15.23242188 C-1.54378498 10.13092493 -0.87138467 5.06436555 0 0 Z " fill="#F7637B" transform="translate(250,323)"/>
<path d="M0 0 C3.12824668 0.36666393 4.359927 1.24785583 6.7578125 3.24609375 C12.57599433 8.03420837 18.29502289 7.995931 25.6328125 7.30859375 C29.37500125 6.10871736 32.4528856 4.5359549 35.1875 1.69140625 C36.6328125 0.30859375 36.6328125 0.30859375 39.1953125 -0.00390625 C41.6328125 0.30859375 41.6328125 0.30859375 43.6328125 2.30859375 C44.1953125 5.05859375 44.1953125 5.05859375 43.6328125 8.30859375 C39.3426308 14.07618902 32.42458558 16.74867684 25.6328125 18.30859375 C15.3227679 19.52445942 6.81050887 17.74364299 -1.4921875 11.43359375 C-3.97022579 9.13630649 -4.32650126 8.54366982 -4.9296875 5.05859375 C-4.22569212 1.61683855 -3.56024936 0.46412492 0 0 Z " fill="#060504" transform="translate(237.3671875,180.69140625)"/>
<path d="M0 0 C0.66 0 1.32 0 2 0 C2.20753906 0.58007812 2.41507813 1.16015625 2.62890625 1.7578125 C5.57870569 9.23722028 9.53467116 13.63813557 16.9375 16.875 C17.948125 17.24625 18.95875 17.6175 20 18 C20 18.66 20 19.32 20 20 C19.33613281 20.21914062 18.67226562 20.43828125 17.98828125 20.6640625 C11.1489658 23.12022542 7.34823175 25.25580821 4.0390625 31.94140625 C3.30630784 33.6052299 2.64579708 35.30053401 2 37 C1.34 37 0.68 37 0 37 C-0.81567174 35.56429734 -1.62742093 34.12636566 -2.4375 32.6875 C-2.88996094 31.88699219 -3.34242187 31.08648437 -3.80859375 30.26171875 C-5 28 -5 28 -6 25 C-9.60132709 22.69515066 -14.00536651 21.46469895 -18 20 C-18 19.34 -18 18.68 -18 18 C-17.33613281 17.70867187 -16.67226563 17.41734375 -15.98828125 17.1171875 C-7.31086639 13.08884016 -3.40367489 8.95703918 0 0 Z " fill="#F5C84C" transform="translate(65,234)"/>
<path d="M0 0 C10.34184356 -1.22268101 10.34184356 -1.22268101 14.3203125 1.7109375 C16.58008824 4.33000812 18.45285461 6.90570921 20 10 C18.86797383 14.1349459 17.21561607 17.15085061 14 20 C8.79799445 21.300843 3.2679215 20.5630795 -2 20 C-3.98 16.37 -5.96 12.74 -8 9 C-6.20963542 7.2421875 -4.41927083 5.484375 -2.62890625 3.7265625 C-0.92117824 2.08276939 -0.92117824 2.08276939 0 0 Z " fill="#F9647C" transform="translate(250,292)"/>
<path d="M0 0 C3.4375 1.9375 3.4375 1.9375 6 5 C6.86150218 8.19738728 6.86150218 10.80261272 6 14 C2.96377604 17.6286579 1.0927625 18.80828728 -3.5625 19.625 C-7.97952699 18.82190418 -9.38176262 17.61932815 -12 14 C-13.1348141 10.02815066 -13.43723824 7.98378603 -11.75 4.1875 C-8.25065123 -0.18668596 -5.40034471 -0.64071886 0 0 Z " fill="#070505" transform="translate(228,136)"/>
<path d="M0 0 C3.49406769 1.66762322 4.82670681 2.74006022 7 6 C7.53665542 10.02491565 7.14921994 11.7363781 5.125 15.3125 C3 18 3 18 1 19 C-2.01135805 19.34556568 -4.09361171 19.57794337 -7 19 C-10.57242969 15.94854964 -11.82856498 14.08575513 -12.5625 9.4375 C-11.91429589 5.47625263 -10.81200626 3.81200626 -8 1 C-5.17998673 -0.41000664 -3.12992745 -0.24548451 0 0 Z " fill="#060504" transform="translate(292,136)"/>
<path d="M0 0 C3 1 3 1 4.6875 4.3125 C7.02343781 8.76452265 10.45500204 10.2239207 15 12 C14 14 14 14 11.1875 15.3125 C7.71385004 17.15149116 6.24659417 18.82378065 4 22 C3.00270658 23.33535898 2.00316209 24.6690441 1 26 C0.64808594 25.38511719 0.29617188 24.77023438 -0.06640625 24.13671875 C-3.45164707 18.59482321 -5.73353153 15.87994054 -12 14 C-12 13.34 -12 12.68 -12 12 C-10.35546875 10.8515625 -10.35546875 10.8515625 -8.1875 9.625 C-3.8257467 7.00486551 -1.63097275 4.89291826 0 0 Z " fill="#FC657D" transform="translate(398,228)"/>
<path d="M0 0 C2.43816585 -0.0809723 4.87364384 -0.14046972 7.3125 -0.1875 C8.34793945 -0.22520508 8.34793945 -0.22520508 9.40429688 -0.26367188 C14.48846108 -0.33735541 14.48846108 -0.33735541 16.99609375 1.31640625 C18 3 18 3 17.75 6.125 C17 9 17 9 16 10 C13.30345146 10.07319621 10.63308542 10.09242537 7.9375 10.0625 C6.79958008 10.05573242 6.79958008 10.05573242 5.63867188 10.04882812 C3.75908129 10.0370068 1.87953101 10.01907078 0 10 C0 6.7 0 3.4 0 0 Z " fill="#F16078" transform="translate(205,418)"/>
<path d="M0 0 C2.6923481 2.18753283 2.93936827 3.58423955 3.4375 7 C3 10 3 10 1.375 12.375 C-1.69477548 14.4753727 -3.34556561 14.53293835 -7 14 C-9.375 13 -9.375 13 -11 11 C-11.65964122 7.44238446 -11.63041883 4.26083766 -10 1 C-6.73916234 -0.63041883 -3.55761554 -0.65964122 0 0 Z " fill="#86D147" transform="translate(77,327)"/>
<path d="M0 0 C2.6923481 2.18753283 2.93936827 3.58423955 3.4375 7 C3 10 3 10 1.375 12.375 C-1.69477548 14.4753727 -3.34556561 14.53293835 -7 14 C-9.375 13 -9.375 13 -11 11 C-11.65964122 7.44238446 -11.63041883 4.26083766 -10 1 C-6.73916234 -0.63041883 -3.55761554 -0.65964122 0 0 Z " fill="#F5C84C" transform="translate(383,0)"/>
</svg>
